<svg width="26" height="26" viewBox="0 0 26 26" fill="none" xmlns="http://www.w3.org/2000/svg">
<path d="M16.5102 24.1259H16.3694C11.5594 24.1259 9.24105 22.2301 8.84022 17.9834C8.79689 17.5393 9.12189 17.1384 9.57689 17.0951C10.0102 17.0518 10.4219 17.3876 10.4652 17.8318C10.7794 21.2334 12.3827 22.5009 16.3802 22.5009H16.5211C20.9302 22.5009 22.4902 20.9409 22.4902 16.5318V9.46843C22.4902 5.05927 20.9302 3.49927 16.5211 3.49927H16.3802C12.3611 3.49927 10.7577 4.78843 10.4652 8.2551C10.4111 8.69927 10.0319 9.0351 9.57689 8.99177C9.12189 8.95927 8.79689 8.55843 8.82939 8.11427C9.19772 3.8026 11.5269 1.87427 16.3694 1.87427H16.5102C21.8294 1.87427 24.1044 4.14927 24.1044 9.46843V16.5318C24.1044 21.8509 21.8294 24.1259 16.5102 24.1259Z" fill="white"/>
<path d="M16.2502 13.8125H3.92187C3.47771 13.8125 3.10938 13.4442 3.10938 13C3.10938 12.5558 3.47771 12.1875 3.92187 12.1875H16.2502C16.6944 12.1875 17.0627 12.5558 17.0627 13C17.0627 13.4442 16.6944 13.8125 16.2502 13.8125Z" fill="white"/>
<path d="M6.3374 17.4417C6.13156 17.4417 5.92573 17.3658 5.76323 17.2033L2.13406 13.5742C1.8199 13.26 1.8199 12.74 2.13406 12.4258L5.76323 8.79666C6.0774 8.48249 6.5974 8.48249 6.91156 8.79666C7.22573 9.11083 7.22573 9.63083 6.91156 9.94499L3.85656 13L6.91156 16.055C7.22573 16.3692 7.22573 16.8892 6.91156 17.2033C6.7599 17.3658 6.54323 17.4417 6.3374 17.4417Z" fill="white"/>
</svg>
