<svg width="28" height="28" viewBox="0 0 28 28" fill="none" xmlns="http://www.w3.org/2000/svg">
<path d="M14.0003 14.8752C10.302 14.8752 7.29199 11.8652 7.29199 8.16683C7.29199 4.4685 10.302 1.4585 14.0003 1.4585C17.6987 1.4585 20.7087 4.4685 20.7087 8.16683C20.7087 11.8652 17.6987 14.8752 14.0003 14.8752ZM14.0003 3.2085C11.2703 3.2085 9.04199 5.43683 9.04199 8.16683C9.04199 10.8968 11.2703 13.1252 14.0003 13.1252C16.7303 13.1252 18.9587 10.8968 18.9587 8.16683C18.9587 5.43683 16.7303 3.2085 14.0003 3.2085Z" fill="white"/>
<path d="M24.0218 26.5417C23.5435 26.5417 23.1468 26.145 23.1468 25.6667C23.1468 21.6417 19.0402 18.375 14.0002 18.375C8.96018 18.375 4.85352 21.6417 4.85352 25.6667C4.85352 26.145 4.45685 26.5417 3.97852 26.5417C3.50018 26.5417 3.10352 26.145 3.10352 25.6667C3.10352 20.685 7.99185 16.625 14.0002 16.625C20.0085 16.625 24.8968 20.685 24.8968 25.6667C24.8968 26.145 24.5002 26.5417 24.0218 26.5417Z" fill="white"/>
</svg>
