<svg width="50" height="50" viewBox="0 0 50 50" fill="none" xmlns="http://www.w3.org/2000/svg">
<path d="M36.959 47.3958H13.0423C7.85482 47.3958 3.64648 43.1874 3.64648 37.9999V23.9791C3.64648 18.7916 7.85482 14.5833 13.0423 14.5833H36.959C42.1465 14.5833 46.3548 18.7916 46.3548 23.9791V26.9791C46.3548 27.8333 45.6465 28.5416 44.7923 28.5416H40.584C39.8548 28.5416 39.1881 28.8124 38.709 29.3124L38.6881 29.3333C38.1048 29.8958 37.834 30.6665 37.8965 31.4582C38.0215 32.8332 39.334 33.9374 40.834 33.9374H44.7923C45.6465 33.9374 46.3548 34.6457 46.3548 35.4999V37.979C46.3548 43.1874 42.1465 47.3958 36.959 47.3958ZM13.0423 17.7083C9.58398 17.7083 6.77148 20.5208 6.77148 23.9791V37.9999C6.77148 41.4582 9.58398 44.2708 13.0423 44.2708H36.959C40.4173 44.2708 43.2298 41.4582 43.2298 37.9999V37.0832H40.834C37.6882 37.0832 35.0215 34.7499 34.7715 31.7499C34.6048 30.0416 35.2298 28.3541 36.4798 27.125C37.5632 26.0208 39.0215 25.4166 40.584 25.4166H43.2298V23.9791C43.2298 20.5208 40.4173 17.7083 36.959 17.7083H13.0423V17.7083Z" fill="white"/>
<path d="M5.20898 27.4168C4.35482 27.4168 3.64648 26.7084 3.64648 25.8543V16.3335C3.64648 13.2294 5.60482 10.4168 8.50065 9.31259L25.0423 3.06259C26.7507 2.41676 28.6465 2.64603 30.1257 3.68769C31.6257 4.72936 32.5007 6.41685 32.5007 8.22935V16.146C32.5007 17.0002 31.7923 17.7085 30.9382 17.7085C30.084 17.7085 29.3757 17.0002 29.3757 16.146V8.22935C29.3757 7.43768 29.0007 6.70849 28.334 6.25015C27.6673 5.79182 26.8757 5.68764 26.1257 5.97931L9.58398 12.2293C7.89648 12.8751 6.75065 14.521 6.75065 16.3335V25.8543C6.77148 26.7293 6.06315 27.4168 5.20898 27.4168Z" fill="white"/>
<path d="M40.8351 37.0831C37.6893 37.0831 35.0226 34.7498 34.7726 31.7498C34.6059 30.0206 35.2309 28.3332 36.4809 27.104C37.5434 26.0207 39.0018 25.4165 40.5643 25.4165H44.8976C46.9601 25.479 48.5434 27.1039 48.5434 29.1039V33.3957C48.5434 35.3957 46.9601 37.0206 44.9601 37.0831H40.8351ZM44.8559 28.5415H40.5851C39.8559 28.5415 39.1893 28.8123 38.7101 29.3123C38.1059 29.8957 37.8143 30.6873 37.8976 31.4789C38.0226 32.8539 39.3351 33.9581 40.8351 33.9581H44.9184C45.1893 33.9581 45.4393 33.7082 45.4393 33.3957V29.1039C45.4393 28.7914 45.1893 28.5623 44.8559 28.5415Z" fill="white"/>
<path d="M29.1673 26.5625H14.584C13.7298 26.5625 13.0215 25.8542 13.0215 25C13.0215 24.1458 13.7298 23.4375 14.584 23.4375H29.1673C30.0215 23.4375 30.7298 24.1458 30.7298 25C30.7298 25.8542 30.0215 26.5625 29.1673 26.5625Z" fill="white"/>
</svg>
