<svg width="42" height="43" viewBox="0 0 42 43" fill="none" xmlns="http://www.w3.org/2000/svg">
<path d="M26.25 40.3125H15.75C6.2475 40.3125 2.1875 36.2525 2.1875 26.75V16.25C2.1875 6.7475 6.2475 2.6875 15.75 2.6875H24.5C25.2175 2.6875 25.8125 3.2825 25.8125 4C25.8125 4.7175 25.2175 5.3125 24.5 5.3125H15.75C7.6825 5.3125 4.8125 8.1825 4.8125 16.25V26.75C4.8125 34.8175 7.6825 37.6875 15.75 37.6875H26.25C34.3175 37.6875 37.1875 34.8175 37.1875 26.75V18C37.1875 17.2825 37.7825 16.6875 38.5 16.6875C39.2175 16.6875 39.8125 17.2825 39.8125 18V26.75C39.8125 36.2525 35.7525 40.3125 26.25 40.3125Z" fill="#00B533"/>
<path d="M38.5 19.3125H31.5C25.515 19.3125 23.1875 16.985 23.1875 11V3.99998C23.1875 3.47498 23.5025 2.98498 23.9925 2.79248C24.4825 2.58248 25.0425 2.70498 25.4275 3.07248L39.4275 17.0725C39.795 17.44 39.9175 18.0175 39.7075 18.5075C39.4975 18.9975 39.025 19.3125 38.5 19.3125ZM25.8125 7.16748V11C25.8125 15.515 26.985 16.6875 31.5 16.6875H35.3325L25.8125 7.16748Z" fill="#00B533"/>
<path d="M22.75 24.5625H12.25C11.5325 24.5625 10.9375 23.9675 10.9375 23.25C10.9375 22.5325 11.5325 21.9375 12.25 21.9375H22.75C23.4675 21.9375 24.0625 22.5325 24.0625 23.25C24.0625 23.9675 23.4675 24.5625 22.75 24.5625Z" fill="#00B533"/>
<path d="M19.25 31.5625H12.25C11.5325 31.5625 10.9375 30.9675 10.9375 30.25C10.9375 29.5325 11.5325 28.9375 12.25 28.9375H19.25C19.9675 28.9375 20.5625 29.5325 20.5625 30.25C20.5625 30.9675 19.9675 31.5625 19.25 31.5625Z" fill="#00B533"/>
</svg>
