<svg width="28" height="28" viewBox="0 0 28 28" fill="none" xmlns="http://www.w3.org/2000/svg">
<path d="M20.9997 9.22832C20.9647 9.22832 20.9414 9.22832 20.9064 9.22832H20.848C18.643 9.15832 16.998 7.45497 16.998 5.35497C16.998 3.20831 18.748 1.46997 20.883 1.46997C23.018 1.46997 24.7681 3.21997 24.7681 5.35497C24.7564 7.46664 23.1114 9.16998 21.0114 9.23998C21.0114 9.22831 21.0114 9.22832 20.9997 9.22832ZM20.883 3.20831C19.7047 3.20831 18.748 4.16498 18.748 5.34331C18.748 6.49831 19.6464 7.43165 20.8014 7.47832C20.813 7.46665 20.9064 7.46665 21.0114 7.47832C22.143 7.41998 23.018 6.48665 23.0297 5.34331C23.0297 4.16498 22.073 3.20831 20.883 3.20831Z" fill="white"/>
<path d="M21.0113 17.8267C20.5563 17.8267 20.1013 17.7917 19.6463 17.71C19.1679 17.6283 18.8529 17.1733 18.9346 16.695C19.0163 16.2167 19.4713 15.9017 19.9496 15.9833C21.3846 16.2283 22.9013 15.96 23.9163 15.2834C24.4646 14.9217 24.7563 14.4667 24.7563 14.0117C24.7563 13.5567 24.4529 13.1133 23.9163 12.7517C22.9013 12.075 21.3613 11.8067 19.9146 12.0633C19.4363 12.1567 18.9813 11.83 18.8996 11.3517C18.8179 10.8733 19.1329 10.4183 19.6113 10.3367C21.5129 9.99835 23.4846 10.36 24.8846 11.2933C25.9113 11.9817 26.5063 12.9617 26.5063 14.0117C26.5063 15.05 25.9229 16.0417 24.8846 16.7417C23.8229 17.4417 22.4463 17.8267 21.0113 17.8267Z" fill="white"/>
<path d="M6.96555 9.22826C6.95388 9.22826 6.94221 9.22826 6.94221 9.22826C4.84221 9.15826 3.19721 7.45491 3.18555 5.35491C3.18555 3.20825 4.93555 1.45825 7.07055 1.45825C9.20555 1.45825 10.9555 3.20825 10.9555 5.34325C10.9555 7.45492 9.31055 9.15826 7.21055 9.22826L6.96555 8.35326L7.04721 9.22826C7.02388 9.22826 6.98888 9.22826 6.96555 9.22826ZM7.08221 7.47826C7.15221 7.47826 7.21055 7.47825 7.28055 7.48992C8.31888 7.44325 9.22888 6.50991 9.22888 5.35491C9.22888 4.17658 8.27222 3.21991 7.09388 3.21991C5.91555 3.21991 4.95888 4.17658 4.95888 5.35491C4.95888 6.49825 5.84555 7.41992 6.97721 7.48992C6.98888 7.47825 7.03555 7.47826 7.08221 7.47826Z" fill="white"/>
<path d="M6.95398 17.8267C5.51898 17.8267 4.14232 17.4417 3.08065 16.7417C2.05398 16.0534 1.45898 15.0617 1.45898 14.0117C1.45898 12.9733 2.05398 11.9817 3.08065 11.2933C4.48065 10.36 6.45232 9.99835 8.35398 10.3367C8.83232 10.4183 9.14732 10.8733 9.06565 11.3517C8.98398 11.83 8.52899 12.1567 8.05065 12.0633C6.60399 11.8067 5.07565 12.075 4.04899 12.7517C3.50065 13.1133 3.20898 13.5567 3.20898 14.0117C3.20898 14.4667 3.51232 14.9217 4.04899 15.2834C5.06399 15.96 6.58065 16.2283 8.01565 15.9833C8.49398 15.9017 8.94899 16.2283 9.03065 16.695C9.11232 17.1733 8.79732 17.6283 8.31899 17.71C7.86399 17.7917 7.40898 17.8267 6.95398 17.8267Z" fill="white"/>
<path d="M13.9997 17.9434C13.9647 17.9434 13.9414 17.9434 13.9064 17.9434H13.848C11.643 17.8734 9.99805 16.1701 9.99805 14.0701C9.99805 11.9234 11.748 10.1851 13.883 10.1851C16.018 10.1851 17.768 11.9351 17.768 14.0701C17.7564 16.1817 16.1114 17.8851 14.0114 17.9551C14.0114 17.9434 14.0114 17.9434 13.9997 17.9434ZM13.883 11.9234C12.7047 11.9234 11.748 12.8801 11.748 14.0584C11.748 15.2134 12.6464 16.1467 13.8014 16.1934C13.813 16.1817 13.9064 16.1817 14.0114 16.1934C15.143 16.1351 16.018 15.2017 16.0297 14.0584C16.0297 12.8917 15.073 11.9234 13.883 11.9234Z" fill="white"/>
<path d="M13.9989 26.5533C12.5989 26.5533 11.1989 26.1917 10.1139 25.4567C9.08719 24.7684 8.49219 23.7884 8.49219 22.7384C8.49219 21.7 9.07552 20.6967 10.1139 20.0083C12.2955 18.5617 15.7139 18.5617 17.8839 20.0083C18.9105 20.6967 19.5055 21.6767 19.5055 22.7267C19.5055 23.765 18.9222 24.7684 17.8839 25.4567C16.7989 26.18 15.3989 26.5533 13.9989 26.5533ZM11.0822 21.4784C10.5339 21.84 10.2422 22.295 10.2422 22.75C10.2422 23.205 10.5455 23.6483 11.0822 24.01C12.6572 25.0717 15.3289 25.0717 16.9039 24.01C17.4522 23.6483 17.7439 23.1934 17.7439 22.7384C17.7439 22.2834 17.4405 21.84 16.9039 21.4784C15.3405 20.4167 12.6689 20.4284 11.0822 21.4784Z" fill="white"/>
</svg>
