<svg width="27" height="24" viewBox="0 0 27 24" fill="none" xmlns="http://www.w3.org/2000/svg">
<path d="M13.5116 17C12.5554 17 11.5879 16.78 10.8341 16.35L4.0616 12.42C2.8016 11.69 2.04785 10.46 2.04785 9.12003C2.04785 7.78003 2.8016 6.55003 4.0616 5.82003L10.8454 1.90003C12.3529 1.03003 14.7041 1.03003 16.2004 1.91003L22.9391 5.84003C24.1879 6.57003 24.9416 7.80003 24.9416 9.13003C24.9416 10.46 24.1879 11.69 22.9391 12.42L16.2004 16.35C15.4466 16.79 14.4791 17 13.5116 17ZM13.5116 2.75003C12.8704 2.75003 12.2291 2.88003 11.7679 3.16003L4.99535 7.08003C4.20785 7.54003 3.7466 8.28003 3.7466 9.12003C3.7466 9.96003 4.1966 10.7 4.99535 11.16L11.7679 15.09C12.7016 15.63 14.3441 15.63 15.2779 15.09L22.0166 11.16C22.8041 10.7 23.2541 9.96003 23.2541 9.12003C23.2541 8.28003 22.8041 7.54003 22.0166 7.08003L15.2779 3.15003C14.8054 2.89003 14.1641 2.75003 13.5116 2.75003Z" fill="white"/>
<path d="M13.4998 22.7501C13.0048 22.7501 12.4986 22.6901 12.0936 22.5701L8.50484 21.5101C6.80609 21.0101 5.46734 19.3601 5.47859 17.7701L5.48984 13.0801C5.48984 12.6701 5.87234 12.3301 6.33359 12.3301C6.79484 12.3301 7.17734 12.6701 7.17734 13.0801L7.16609 17.7701C7.16609 18.7101 8.04359 19.7901 9.04484 20.0901L12.6336 21.1501C13.0836 21.2801 13.9161 21.2801 14.3661 21.1501L17.9548 20.0901C18.9561 19.7901 19.8336 18.7101 19.8336 17.7801V13.1401C19.8336 12.7301 20.2161 12.3901 20.6773 12.3901C21.1386 12.3901 21.5211 12.7301 21.5211 13.1401V17.7801C21.5211 19.3701 20.1936 21.0101 18.4948 21.5201L14.9061 22.5801C14.5011 22.6901 13.9948 22.7501 13.4998 22.7501Z" fill="white"/>
<path d="M24.0752 15.75C23.6139 15.75 23.2314 15.41 23.2314 15V9C23.2314 8.59 23.6139 8.25 24.0752 8.25C24.5364 8.25 24.9189 8.59 24.9189 9V15C24.9189 15.41 24.5364 15.75 24.0752 15.75Z" fill="white"/>
</svg>
